<svg width="106" height="72" viewBox="0 0 106 72" fill="none" xmlns="http://www.w3.org/2000/svg">
<path d="M25.5734 0.00769043L25.4324 0.0134213C11.4093 0.110844 0 11.6856 0 25.8148C0 40.0428 11.4919 51.6176 25.619 51.6176H30.3721V40.8709C29.3238 41.0959 28.2512 41.2105 27.1829 41.2105C18.752 41.2105 11.8922 34.3035 11.8922 25.8148C11.8922 17.3232 18.752 10.4133 27.1829 10.4133C28.2398 10.4133 29.311 10.5279 30.3721 10.7543V0.00769043H25.5734Z" fill="#595959"/>
<path d="M32.6738 51.617H44.4478V22.1537L62.8608 48.0224V25.8945L44.5817 0H32.6738V11.5174C38.5138 13.8742 42.2813 19.4717 42.2813 25.8143C42.2813 32.1525 38.5138 37.7514 32.6738 40.1097V51.617Z" fill="#595959"/>
<path d="M79.2383 51.617H105.22V40.3031L77.0704 0H65.1611V51.617H76.9394V22.148L89.6093 40.1512H79.2383V51.617Z" fill="#595959"/>
<path d="M27.2628 39.0295C20.0611 39.0295 14.2012 33.1268 14.2012 25.8717C14.2012 18.6165 20.0625 12.7167 27.2628 12.7167C34.4659 12.7167 40.3229 18.6179 40.3229 25.8717C40.3244 33.1268 34.4659 39.0295 27.2628 39.0295ZM27.2628 14.7912C21.1963 14.7912 16.2623 19.7655 16.2623 25.8731C16.2623 31.9807 21.1963 36.9507 27.2628 36.9507C33.3278 36.9507 38.2647 31.9807 38.2647 25.8731C38.2661 19.7655 33.3278 14.7912 27.2628 14.7912Z" fill="#595959"/>
<path d="M33.9901 16.4617L33.8648 16.5577C33.5984 16.7468 31.4134 16.6923 30.1657 17.8342C29.7725 18.1938 29.17 19.4689 28.747 19.7325C28.3239 20.0348 27.8624 20.3342 27.324 20.413C26.9409 20.4503 26.6332 20.2999 26.3654 20.0348C26.1717 19.8084 26.0164 19.4703 25.7515 19.2783C25.5179 19.125 25.4054 19.393 25.3299 19.5806C25.0991 20.3013 25.2102 21.1724 24.716 21.8529C24.4824 22.1566 24.0978 22.4202 23.7901 22.648C23.5608 22.8214 23.3001 22.9532 23.0808 23.1423C22.8771 23.3171 22.7489 23.5392 22.8087 23.8157C22.8629 24.1008 22.8757 24.4017 22.9953 24.671C23.0879 24.8716 23.1933 25.0822 23.1591 25.31C23.0993 25.6954 22.7574 25.9704 22.8543 26.3902C23.1164 27.5779 24.1676 28.3802 25.3028 28.704C25.6575 28.8043 25.9053 28.9404 25.9652 29.4304C26.0179 29.886 25.2416 30.0235 24.9311 30.0364C23.5352 30.0937 22.3714 29.4232 21.4086 28.4762C20.9684 28.0436 20.5012 27.6381 20.0725 27.194C19.8816 27.0077 19.7007 26.7842 19.6437 26.5177C19.5825 26.2212 19.7121 25.9518 19.7947 25.6782C19.8916 25.3386 19.9557 24.9704 19.883 24.6194C19.8531 24.4618 19.7976 24.3128 19.7463 24.1638C19.6979 24.0263 19.6466 23.8859 19.554 23.7713C19.4628 23.6724 19.3361 23.6137 19.1979 23.6323C19.1822 23.6323 19.1694 23.6337 19.1538 23.638C18.9928 23.6724 18.866 23.7827 18.725 23.8529C18.6125 23.9102 18.4886 23.9489 18.3647 23.979C18.0627 24.0506 17.7479 24.0678 17.4388 24.0564C17.1297 24.0506 16.8206 23.979 16.5172 23.9403C16.3662 23.9217 16.2551 23.8587 16.221 23.7111C16.1953 23.5979 16.1697 23.4804 16.1398 23.373L16.0329 23.1022C15.8036 24.0206 15.6797 24.9776 15.6797 25.9633C15.6797 32.3989 20.8773 37.6354 27.267 37.6354C33.6597 37.6354 38.8573 32.3989 38.8573 25.9633C38.853 22.0492 36.9301 18.5821 33.9901 16.4617ZM32.5629 35.0795C32.1228 35.6196 31.3906 36.4133 30.6599 35.9434C30.328 35.7643 30.0717 35.4764 29.7455 35.2958C29.3766 35.0451 28.9407 34.899 28.4991 34.8617C27.5106 34.7901 26.4494 35.0451 25.5336 34.6096C24.8 34.2872 24.1804 33.4921 24.2872 32.664C24.3998 31.9448 25.2031 31.5479 25.7871 31.2585C26.5563 30.8631 27.3639 30.4319 28.2057 30.2857C28.2057 30.2857 29.1287 30.0594 29.3751 30.1453C29.6899 30.2485 30.0717 30.2141 30.3637 30.3946C30.62 30.5407 30.7682 30.7915 30.9519 31.0078C31.1699 31.333 31.4248 31.6224 31.7211 31.8746C32.0843 32.164 32.4874 32.4147 32.8164 32.7729C33.0743 33.0623 33.2224 33.4219 33.1839 33.8202C33.1113 34.2887 32.8179 34.7199 32.5629 35.0795Z" fill="#595959"/>
<path d="M24.2321 57.9052V66.9125H22.3192V65.8953H17.1914V71.8882H15.2785V65.8953H10.1706V67.0071H8.33887V57.9052H15.2799V54.6257H17.1928V57.9052H24.2321ZM15.2799 64.1804V59.6201H10.172V64.1804H15.2799ZM22.3192 64.1804V59.6201H17.1914V64.1804H22.3192Z" fill="#595959"/>
<path d="M44.7806 63.2949V65.0098H36.5975C35.6901 67.8179 33.4624 70.3423 28.1765 71.9068C27.9985 71.4741 27.5056 70.7391 27.1709 70.381C31.568 69.1374 33.6191 67.1775 34.5464 65.0098H27.2891V63.2949H29.4186V57.1329H35.2956V54.6271H37.1487V57.1329H42.9075V63.2949H44.7806ZM35.0591 63.2949C35.2372 62.4095 35.2956 61.5241 35.2956 60.6372V58.8464H31.2532V63.2934H35.0591V63.2949ZM37.7811 65.5571C39.9904 66.9898 43.1254 69.1188 44.6438 70.4383L43.322 71.871C41.862 70.5142 38.8266 68.2907 36.5576 66.7835L37.7811 65.5571ZM37.1501 60.6573C37.1501 61.5427 37.1102 62.4281 36.9721 63.2949H40.9746V58.8478H37.1487V60.6573H37.1501Z" fill="#595959"/>
<path d="M51.801 63.4841C51.4464 65.1618 50.8937 66.9326 50.2043 68.3452C50.5789 68.5343 50.9934 68.8538 51.6244 69.2306C53.0046 70.0215 54.7994 70.1346 57.1268 70.1346C59.5126 70.1346 62.8457 69.9656 65.015 69.7005C64.8185 70.1719 64.5222 71.0387 64.4823 71.51C62.9639 71.6046 59.336 71.7178 57.0485 71.7178C54.4461 71.7178 52.7497 71.51 51.3296 70.7192C50.5404 70.2851 49.8112 69.626 49.3967 69.626C48.9437 69.626 48.2728 70.851 47.7401 72L46.498 70.3796C47.1689 69.5315 47.8583 68.7965 48.4893 68.4197C49.0021 67.4025 49.475 66.0457 49.7713 64.7635H47.2473C47.7401 63.6517 48.3127 62.1245 48.8055 60.6559H46.8143V59.0728H51.0732C50.6387 60.411 50.0875 61.9368 49.6146 63.2563H50.6986L50.9749 63.1804L51.801 63.4841ZM48.864 58.2834C48.6474 57.4539 48.1546 56.1157 47.8384 55.1172L49.4551 54.6644C49.8097 55.6444 50.2826 56.9066 50.539 57.7175L48.864 58.2834ZM54.7595 68.9484H53.0445V59.282H58.0925C57.067 58.8106 55.8648 58.302 54.8578 57.9439L56.0414 57.0011C56.8106 57.2461 57.7179 57.5857 58.5854 57.9625C59.3346 57.5857 60.1038 57.133 60.7348 56.6817H53.1229V55.3063H62.4497L62.8044 55.2117L63.9083 56.0599C62.9027 56.984 61.5424 57.9066 60.1422 58.623C60.6749 58.8493 61.1279 59.0757 61.5025 59.282H63.9282V67.328C63.9282 68.1188 63.7701 68.5157 63.2189 68.7421C62.6477 68.9871 61.8187 69.0057 60.5767 69.0057C60.5168 68.573 60.3003 67.9885 60.0838 67.593C60.8929 67.6303 61.662 67.6117 61.8785 67.6117C62.115 67.6117 62.1933 67.5357 62.1933 67.3108V65.9727H59.2548V68.8753H57.5983V65.9727H54.758V68.9484H54.7595ZM54.7595 60.6001V61.9568H57.5997V60.6001H54.7595ZM57.5997 64.6517V63.2377H54.7595V64.6517H57.5997ZM62.1933 60.6001H59.2548V61.9568H62.1933V60.6001ZM62.1933 64.6517V63.2377H59.2548V64.6517H62.1933Z" fill="#595959"/>
<path d="M73.6329 59.1501H66.5537V57.7561H69.9067C69.6104 57.0584 69.0592 55.9853 68.5664 55.2116L69.8882 54.5139C70.381 55.3048 70.9722 56.3048 71.2485 56.9824L69.9466 57.7547H73.6343V59.1501H73.6329ZM67.3414 61.6373V60.2619H72.9221V61.6373H67.3414ZM67.3414 62.749H72.9421V64.1058H67.3414V62.749ZM72.9421 70.8137H68.7814V71.6618H67.3414V65.2921H72.9421V70.8137ZM68.7814 66.7061V69.401H71.4835V66.7061H68.7814ZM82.5453 55.6257C82.4071 62.5986 82.3872 69.6088 83.3144 69.8724C83.4327 69.9096 83.5708 68.6847 83.6306 67.4225C83.907 67.8566 84.3599 68.497 84.6363 68.7606C84.3998 71.4369 83.5908 72.04 82.5652 71.6246C80.6523 70.9842 80.6921 64.6703 80.7121 57.2847H77.7935V62.5986H80.101V64.219H77.7935V71.9068H76.0786V64.219H73.6329V62.5986H76.0786V57.2847H73.8708V55.6257H82.5453Z" fill="#595959"/>
<path d="M92.6826 66.2534C92.308 65.7262 91.5587 64.878 90.8879 64.1431V71.8882H89.1131V64.5772C88.304 65.3308 87.4366 65.9898 86.609 66.4998C86.4708 66.0285 86.0763 65.1058 85.8398 64.7663C87.9109 63.6173 90.0005 61.5628 91.2625 59.3765H86.3911V57.7934H90.1187C89.764 57.0956 89.0148 56.0412 88.3439 55.3248L89.764 54.5526C90.4933 55.2876 91.2824 56.2862 91.6171 56.9653L90.197 57.7948H92.2282L92.543 57.7189L93.5287 58.3779C92.9575 59.7719 92.1285 61.11 91.1827 62.335C91.9718 63.0141 93.4304 64.4081 93.8249 64.8035L92.6826 66.2534ZM104.199 69.5142V71.2292H92.939V69.5142H97.9072V62.0327H93.8249V60.355H97.9072V54.6257H99.7803V60.355H103.764V62.0327H99.7803V69.5142H104.199Z" fill="#595959"/>
</svg>
